<?xml version="1.0" encoding="UTF-8"?>
<svg width="217px" height="51px" viewBox="0 0 217 51" version="1.1" xmlns="http://www.w3.org/2000/svg" xmlns:xlink="http://www.w3.org/1999/xlink">
    <!-- Generator: Sketch 53.2 (72643) - https://sketchapp.com -->
    <title>apple-music</title>
    <desc>Created with Sketch.</desc>
    <g id="Page-1" stroke="none" stroke-width="1" fill="none" fill-rule="evenodd">
        <g id="Desktop" transform="translate(-1044.000000, -2464.000000)" fill="#000000" fill-rule="nonzero">
            <g id="Brands" transform="translate(-68.000000, 2176.000000)">
                <g id="apple-music" transform="translate(1112.000000, 288.000000)">
                    <path d="M34.2330732,27.0322688 C34.1642683,22.8830143 35.9776738,19.6530557 39.6693201,17.3410854 C37.587311,14.3491237 34.5168933,12.667453 30.4567439,12.2914963 C29.012503,12.1574595 27.1660183,12.4948398 24.919936,13.312137 C22.5038262,14.1974334 21.1436067,14.6374662 20.8419238,14.6374662 C20.2041555,14.6374662 18.979561,14.2654325 17.1648323,13.5154806 C15.3540732,12.7674902 13.8092713,12.393495 12.5337348,12.393495 C10.3862287,12.4281484 8.38824085,13.0146408 6.54307927,14.1529724 C4.6972561,15.2926116 3.22125915,16.8493994 2.11442683,18.8194126 C0.703265244,21.2686889 0,24.1933052 0,27.5926078 C0,30.6525686 0.518682927,33.7118755 1.55869512,36.7737978 C2.5318872,39.6984141 3.77566768,42.2653812 5.28408232,44.4733914 C6.62511585,46.4800195 7.80406098,47.9420007 8.80768598,48.8612967 C10.2525884,50.2886245 11.7272622,50.9699235 13.2396463,50.9006167 C14.2121768,50.8653094 15.4863902,50.5089678 17.0642713,49.827015 C18.5396067,49.1842925 20.0175884,48.8606428 21.4949085,48.8606428 C22.8703445,48.8606428 24.2953994,49.182331 25.7740427,49.827015 C27.4174207,50.5089678 28.7611006,50.8483096 29.8011128,50.8483096 C31.345253,50.7816182 32.7875091,50.1179728 34.1318506,48.8612967 C34.5995915,48.4513404 35.1123201,47.8910014 35.6654055,47.1770106 C36.3039086,46.345376 36.9170328,45.4950047 37.5039512,44.6270432 C37.9930122,43.8785868 38.4548726,43.1131088 38.8886494,42.3320727 C39.353984,41.4910174 39.7658468,40.6221275 40.1218445,39.7304522 C40.2879024,39.356457 40.4387439,38.9746157 40.5743689,38.5836207 C40.7080091,38.1926257 40.842311,37.7944385 40.9766128,37.3857899 C39.7348171,36.8431046 38.610122,36.0748452 37.6038506,35.088204 C35.3915091,32.9155011 34.266814,30.2282278 34.2330732,27.0322688 L34.2330732,27.0322688 Z M70.7373689,36.1245369 L70.4932439,36.1245369 L60.2697652,13.0349098 L52.2414268,13.0349098 L52.2414268,50.2886245 L59.2383537,50.2886245 L59.2383537,26.1613569 L59.5631921,26.1613569 L68.1069055,45.3201113 L73.0138841,45.3201113 L81.5304726,26.1613569 L81.8566341,26.1613569 L81.8566341,50.2886245 L88.9342744,50.2886245 L88.9342744,13.0349098 L80.9608476,13.0349098 L70.7373689,36.1245369 Z M27.8884695,8.16120306 C29.6681341,5.95057756 30.5579665,3.57060807 30.5579665,1.01998692 L30.5579665,0.510647299 C30.5579665,0.339341803 30.5407652,0.169997821 30.507686,0 C29.2652287,0.0679991282 27.9486738,0.459647953 26.5547134,1.17233112 C25.1627378,1.88762965 24.013564,2.78992577 23.1058689,3.87595031 C21.2944482,6.01988436 20.3874146,8.31354726 20.3874146,10.7621697 L20.3874146,11.2453558 C20.3874146,11.3996615 20.4046159,11.5605056 20.4376951,11.7318111 C23.2242927,12.0031538 25.7078841,10.8125152 27.8884695,8.16120306 Z M170.711518,13.0349098 L178.575784,13.0349098 L178.575784,50.2892783 L170.711518,50.2892783 L170.711518,13.0349098 Z M202.328021,18.9567185 C206.992198,18.9567185 209.458588,22.5050961 209.458588,26.326124 L217,26.326124 L217,25.5343265 C217,18.3296881 211.440037,12.3261497 202.27311,12.3261497 C192.455183,12.3261497 186.598168,18.7121832 186.598168,29.6025051 L186.598168,33.8060281 C186.598168,44.6930809 192.400933,51 202.245323,51 C211.656375,51 217,44.9114627 217,38.1442417 L217,37.3256369 L209.45925,37.3256369 C209.45925,41.1754336 207.046448,44.3681235 202.383595,44.3681235 C197.608933,44.3681235 194.570933,41.0106665 194.570933,33.8315278 L194.570933,29.631274 C194.570933,22.4769811 197.63672,18.9567185 202.328021,18.9567185 L202.328021,18.9567185 Z M119.012591,36.5599928 C119.012591,41.5559672 116.056628,44.3112396 111.717951,44.3112396 C107.351488,44.3112396 104.396186,41.5821207 104.396186,36.5599928 L104.396186,13.0349098 L96.5848476,13.0349098 L96.5848476,37.6519019 C96.5848476,45.5960308 102.279113,50.9993462 111.716628,50.9993462 C121.12768,50.9993462 126.84907,45.5960308 126.84907,37.6519019 L126.84907,13.0349098 L119.012591,13.0349098 L119.012591,36.5599928 Z M152.868561,28.5916719 L147.255671,27.3376111 C143.947744,26.6530429 142.211744,25.2074076 142.211744,23.0503968 C142.211744,20.1859335 144.570296,18.3839566 148.369119,18.3839566 C152.653546,18.3839566 154.795759,20.8129639 154.984973,23.4335457 L162.307399,23.4335457 C162.226024,16.8552839 156.667384,12.2705735 148.394921,12.2705735 C140.558442,12.2705735 134.374604,16.3380982 134.374604,23.6519275 C134.374604,29.9836925 138.714604,32.9292317 143.92128,34.0512173 L149.479921,35.3327393 C153.222509,36.1788054 155.120598,37.4080204 155.120598,39.9442571 C155.120598,42.8394508 152.787848,44.8048871 148.422707,44.8048871 C143.730744,44.8048871 141.262369,42.3477648 141.046692,39.5905309 L133.506604,39.5905309 C133.617088,44.8585018 137.142015,50.9993462 148.04428,50.9993462 C157.209884,50.9993462 162.879009,46.4963654 162.879009,39.1792669 C162.876363,32.4107383 158.292899,29.7633492 152.868561,28.5916719 Z" id="Shape"></path>
                </g>
            </g>
        </g>
    </g>
</svg>