<?xml version="1.0" encoding="UTF-8"?>
<svg width="207px" height="68px" viewBox="0 0 207 68" version="1.1" xmlns="http://www.w3.org/2000/svg" xmlns:xlink="http://www.w3.org/1999/xlink">
    <!-- Generator: Sketch 53.2 (72643) - https://sketchapp.com -->
    <title>coca-cola</title>
    <desc>Created with Sketch.</desc>
    <g id="Page-1" stroke="none" stroke-width="1" fill="none" fill-rule="evenodd">
        <g id="Desktop" transform="translate(-733.000000, -2594.000000)" fill="#000000" fill-rule="nonzero">
            <g id="Brands" transform="translate(-68.000000, 2176.000000)">
                <g id="coca-cola" transform="translate(801.000000, 418.000000)">
                    <path d="M78.857166,59.3183443 C71.2160292,54.340488 60.8460249,53.4669749 44.1221822,58.1592846 C26.2932907,62.3962773 20.3488723,65.1123449 12.5421707,59.6599619 C9.54300905,56.9815346 8.46773619,52.6690019 9.27066135,46.4570649 C11.1329446,36.3305433 16.1656015,26.5853563 25.1050744,15.7755995 C30.0946074,10.1524078 34.7232348,5.32666986 40.8347582,3.38884665 C45.5188305,2.1731968 45.080918,5.89594599 44.5141473,6.42836064 C43.9160605,6.42836064 42.9113773,6.52362938 42.1348911,7.03605577 C41.5047181,7.53031102 39.7748867,9.12625705 39.681965,11.2730485 C39.5479731,14.5594305 42.9108639,13.8754165 44.361417,12.0710215 C45.9249135,10.0376699 48.2356335,6.14385237 46.4180143,2.51481439 C45.6561595,1.22310531 44.339855,0.330382735 42.7055122,0.0264053764 C37.1091649,-0.29704107 31.8973387,2.40085533 27.0869751,5.38351959 C16.5673207,12.7737258 8.15226464,23.0139468 3.39067204,34.2229497 C0.645633153,40.9859916 -1.83706893,50.6738097 1.88416061,58.5587903 C4.76319148,64.0298636 10.7396961,66.9359495 17.8702773,66.3282543 C22.8713613,65.796878 28.9187122,64.1622534 32.9859594,63.1753004 C37.0534633,62.1865304 57.8730456,54.9492214 64.7138242,67.5457213 C64.7138242,67.5457213 66.9886077,63.0800317 72.6735129,62.984763 C77.3473176,62.5486554 84.0900408,64.3530505 89,68 C87.364117,65.5121102 82.7262488,61.8454319 78.857166,59.3183443 Z" id="Path"></path>
                    <path d="M46.7664754,16.9291039 C42.8449109,14.3594802 34.9630056,19.2720494 28.6499847,27.6986495 C22.8769867,35.2572626 20.3841952,44.0422107 23.0972354,48.104607 C27.1325434,52.8847321 34.6243603,45.9317995 37.8102114,42.2101952 L38.2212389,41.775169 C40.3877935,39.4510704 42.0613735,36.6545101 43.6817009,33.9710307 C43.6817009,33.9710307 45.1707063,31.5147461 45.241796,31.4011488 C46.162084,31.2317854 47.2705658,30.9671552 48.5196759,30.6080327 C48.5018388,30.664315 43.7406407,38.6569216 44.226377,42.624051 C44.3776041,43.8343792 44.2623096,48.2556399 48.5843028,49.5968632 C54.3448925,50.5611498 58.9447817,46.101421 63.0028384,42.133517 C63.0028384,42.133517 63.694347,41.4728451 64.0854694,41.0956503 C63.9864609,41.4911756 63.8574654,42.0191451 63.8574654,42.0191451 C62.17096,47.8766378 64.4442783,49.1058128 65.8663302,49.5591695 C70.1640237,50.8071914 75.2982487,44.5714711 75.3150517,44.5714711 C75.1816616,46.5356727 74.7926073,48.160373 76.8658405,49.464419 C78.8224866,50.1640755 80.8029155,49.097293 82.3084654,48.0958291 C87.7306682,44.2794743 92.0989343,38.3058025 95.6270499,33.1425446 L93.3764803,33.1425446 C93.349854,33.1425446 87.823214,41.1428964 84.2343491,42.8817105 C84.2286619,42.8817105 83.5754125,43.2165645 83.1992836,42.9516761 C82.7331938,42.5548599 82.9169929,41.7294719 83.2047122,41.1449618 C83.2228078,41.10701 97.0617686,17.1356446 97.0617686,17.1356446 L90.5277235,17.1356446 C90.5277235,17.1356446 89.8139832,18.2889159 89.7558189,18.3645614 C89.7118726,18.3268678 89.6071769,18.1285887 89.5347947,18.03358 C85.4865613,12.4409757 76.3190963,21.0433936 69.4171944,31.0193067 C66.7599919,34.8552829 63.3768993,39.1743059 59.8689473,42.2917788 C59.8689473,42.2917788 54.6719049,47.0494425 52.4515807,43.6311949 C51.639866,42.1949628 51.8895846,40.095219 52.3474021,38.716302 C54.9327394,31.3660368 59.3876057,24.6955485 64.4572037,20.6708459 C65.8880448,19.5568173 67.4437453,19.2346139 68.2153913,19.7070756 C68.9511047,20.14236 69.0697598,21.2184368 68.6044456,21.9555287 C67.4238402,21.917835 66.4777013,22.2761831 65.7088989,23.0698155 C64.1940427,24.6570803 63.6677207,26.1878047 64.1493208,27.6240367 C66.4890757,30.9493411 71.1554014,24.3738615 70.929724,20.3682639 C70.8490696,18.9320319 70.0820767,17.5719617 68.9368868,16.9099989 C67.2304763,15.8902045 64.6273019,16.1543184 62.942606,16.967314 C60.6871248,17.8172287 57.1173895,20.7834106 55.0335574,23.0889205 C52.4102195,25.9802314 47.9108898,29.1919384 46.5040899,28.8322995 C46.9639755,27.603899 50.7642998,19.8384871 46.7664754,16.9291039 L46.7664754,16.9291039 Z M78.2685042,28.4168946 C79.5395875,26.6600083 83.2390938,21.9550124 84.1410278,21.1616381 C87.1743592,18.4964893 88.3867612,19.6691238 88.4917154,20.4999335 C85.6607956,25.5635356 82.3195812,31.3644878 79.1781935,36.5796391 C79.1846562,36.5610504 78.195088,38.0721534 78.195088,38.0721534 C76.8076762,40.187646 75.4106996,42.0018473 73.1319527,43.2674251 C72.8070083,43.362692 72.2713799,43.4006439 71.9148976,43.134981 C71.4857745,42.8515039 71.3164518,42.3790422 71.3647928,41.8877336 C71.5015435,40.2632915 73.1575449,35.2949563 78.2685042,28.4168946 L78.2685042,28.4168946 Z M42.7223782,31.458722 C42.7223782,31.458722 42.6652479,31.6293762 42.6373291,31.6851421 C42.6300908,31.6851421 39.7883137,36.313718 39.7883137,36.313718 C38.0733724,38.6003811 35.9321517,41.4731033 33.2555611,42.8517621 C32.4622004,43.1161341 31.3653514,43.2867883 30.8064574,42.5881646 C29.6217158,41.1707794 30.2323114,39.2055452 30.728388,37.6187967 L30.9041734,37.0518426 C32.3264837,33.1977942 34.582999,29.7960698 36.779799,26.6406451 C36.8072008,26.6220564 36.8687257,26.6032096 36.8909574,26.6032096 C36.8963861,26.6220564 36.9051753,26.6220564 36.9087944,26.6600083 C38.2871584,29.3047612 40.8717202,30.5323872 42.8045837,31.1001158 C42.8162165,31.1001158 42.8288834,31.1189626 42.8288834,31.1569144 C42.8291419,31.2131968 42.7976039,31.2893586 42.7223782,31.458722 L42.7223782,31.458722 Z M45.4144792,25.99882 C45.4018123,26.0365137 44.1488246,28.9084613 44.1488246,28.9084613 C43.9676106,29.0594942 43.6811839,28.9841069 43.3528789,28.9084613 L42.7903657,28.8134526 C41.0239814,28.2658618 39.6916318,27.09426 39.2808627,25.696238 C38.714472,22.9753231 41.0418184,20.8402092 42.0670607,20.06594 C43.0509417,19.3851304 44.5805328,19.026266 45.4687659,19.7256643 C46.0165441,20.3682639 46.2241259,21.1993318 46.2241259,22.1068197 C46.2243844,23.3344457 45.8448948,24.7136209 45.4144792,25.99882 Z M128.018087,34.7651795 C127.387845,33.4051094 125.892377,32.5358314 124.298417,32.6300656 C119.122314,33.1027855 114.059437,37.3539083 111.400942,43.4564098 C110.006034,46.5932459 109.244728,49.1814583 108.745549,53.3003951 C110.355278,51.4492746 113.638328,48.4074473 117.363944,46.7445369 C117.363944,46.7445369 117.870877,42.7957379 120.455956,39.2811907 C121.43415,37.8258537 123.391572,35.4831664 125.589664,36.1064028 C127.510378,36.7490024 126.835155,42.058646 124.282648,47.1968609 C122.39399,50.9762965 119.503872,54.7562485 116.579631,57.3630496 C113.994293,59.554704 110.169152,62.1999734 106.822509,60.15961 C104.714636,58.9131372 103.639502,56.304787 103.866472,52.9417889 C104.873618,43.4003857 109.222755,35.2755931 115.446332,26.0174087 C121.863532,17.4204125 128.937341,8.59673799 138.466717,3.89122575 C140.410438,2.90886681 142.210428,2.68218845 143.766387,3.28683619 C143.766387,3.28683619 134.820981,8.19940542 130.556893,17.2879683 C129.472194,19.5934783 127.963542,22.7101766 129.482793,25.4690433 C130.276671,26.9047589 131.686056,27.0183563 132.821164,26.9427108 C138.047935,25.7331571 141.424823,20.8585397 144.183878,16.3998435 C145.783524,13.0177405 147.205318,9.65448426 147.205318,5.91325866 C147.205318,5.45990194 147.181793,4.85551238 147.143534,4.40163932 C149.640462,3.07952101 154.761245,5.4219501 154.761245,5.4219501 C158.762688,6.74510111 167.282849,13.2640402 170.15694,14.510513 C171.558828,12.8858127 173.86265,10.4297862 175.160101,9.20138572 L173.282042,8.04863075 C170.275595,6.2158407 167.097758,4.47728483 163.970071,2.75809214 C156.866533,-1.11480313 151.084228,0.245267016 148.141633,1.30352964 C146.985069,1.71893452 145.928289,2.07805706 145.928289,2.07805706 C143.744414,-0.302582045 140.162529,-0.0764200386 137.523422,0.566437718 C128.032564,3.28709436 119.220806,9.91885629 109.773635,21.4260101 C102.828045,30.4389275 98.5197531,38.2237026 96.2234276,45.913469 C94.4534241,51.0904102 93.9154692,58.7047893 98.2356529,63.2208005 C101.908791,67.0554857 106.779338,66.224676 110.218527,64.8460172 C117.670534,61.1804371 124.368215,53.2820647 127.705551,44.1935018 C128.511062,41.4919501 129.404724,37.6753372 128.018087,34.7651795 L128.018087,34.7651795 Z M145.153799,6.29148622 C144.167333,17.5905504 135.373154,24.2230868 133.197034,24.7513145 C131.878385,25.0154284 129.628333,24.4301438 131.637198,19.6882288 C134.595045,13.3012175 139.645513,7.87900925 145.063838,5.10129575 C145.195936,5.57375748 145.192317,5.87530682 145.153799,6.29148622 L145.153799,6.29148622 Z M197.320172,7.7269437 C192.589737,10.410423 187.685842,12.1482044 181.749984,11.5438148 C180.105099,13.395968 178.503125,15.3041454 177.026787,17.2688633 C185.358237,19.3851304 194.190676,14.6803927 199.116802,10.2028497 C204.328063,5.68683848 207,0 207,0 C207,0 203.093946,4.45869617 197.320172,7.7269437 Z M107.921426,17.1361609 L101.716203,17.1361609 L98.2160063,22.8160287 L104.419937,22.8160287 L107.921426,17.1361609 Z" id="Shape"></path>
                    <path d="M181.194898,59.5094445 C180.525166,59.9609783 179.58427,59.6138424 179.935874,58.5791204 C180.812416,55.9444877 184.296272,50.575453 184.296272,50.575453 L194,33.5205392 L187.353273,33.5205392 C187.037219,34.0348145 186.361778,35.2155908 186.361778,35.2155908 C186.054288,34.708001 185.13467,33.5794237 184.75608,33.3354 C183.132219,32.3184205 180.74988,32.799268 179.106298,33.7211066 C171.96032,37.8617946 166.746473,46.0426299 162.634403,52.4224729 C162.634403,52.4224729 158.305922,59.5143302 155.903343,60.0417195 C154.027521,60.1924022 154.221097,57.6883955 154.302316,57.1049501 C155.027579,52.8889207 156.711901,48.8809157 158.408678,45.2488459 C161.860357,42.8777794 165.799091,39.7728419 169.378697,36.3667961 C177.14718,29.00803 183.696341,20.6713693 184.653584,18.8084068 C184.653584,18.8084068 183.617457,19.0156597 182.393982,19.0529447 C176.417507,27.3142641 164.187425,39.321051 160.479634,41.108415 C162.122178,37.1932367 172.734626,18.5070414 181.765248,9.56842134 L183.186451,8.21304863 C185.384036,6.08652001 187.660764,3.90367824 189.435127,3.54599972 C189.622476,3.52722867 189.863797,3.54599972 190.072165,3.97953385 C190.151308,5.63524338 189.52932,6.85870446 188.815735,8.25110501 L187.815677,10.2837784 C187.815677,10.2837784 189.232209,10.0202122 190.162725,9.71833261 C191.241926,7.70571599 192.437636,5.44676146 191.99677,2.75632991 C191.849901,1.89054734 191.217275,1.23201774 190.390813,1.08133506 C187.696832,0.573230998 184.761011,2.54856266 182.398393,4.14873045 L182.303162,4.20478646 C170.158711,13.6329967 159.904094,27.2201517 150.938343,45.7754639 C150.288591,46.2640255 147.778067,46.8479852 147.351472,46.5653908 C148.236838,44.7592558 149.351588,42.3311047 149.909223,39.696472 C150.005752,38.9433157 150.095534,38.1724169 150.095534,37.419775 C150.095534,35.8000647 149.703191,34.2762668 148.239173,33.2230309 C146.522415,32.3760193 144.400601,32.7714971 142.969796,33.4107414 C136.561277,36.045374 131.77143,42.5571287 128.314821,47.919735 C126.455865,51.3268093 124.602358,54.9758501 124.089096,59.1543374 C123.727632,62.4282144 124.463534,64.5362291 126.34221,65.5902364 C128.273822,66.568131 130.705203,65.5516658 131.66037,65.062847 C138.152963,61.6753152 142.689552,54.882252 146.265265,48.6718627 C146.407463,48.6533488 148.359834,48.5972928 149.836827,48.220329 C149.856288,48.220329 149.864591,48.220329 149.897287,48.2398714 C149.812694,48.52118 149.049547,50.7801346 149.049547,50.7801346 C146.783198,57.3659448 145.735136,61.8452832 147.875893,64.4984298 C150.93497,68.243383 155.999613,64.3672896 160.119467,59.2476784 C159.23514,65.382212 162.443422,66.3426213 164.889334,65.8725736 C167.698786,65.1201887 170.829481,62.1461343 172.282342,60.6223364 C171.815787,62.4097004 171.942416,65.6095217 174.49835,65.9288867 C176.249879,66.2497946 177.56106,65.305585 179.077754,64.4961156 C184.51891,61.5601176 191.032262,51.7768002 192.72333,48.9482857 L190.506025,48.9482857 C188.101889,52.5489847 185.042812,57.2690039 181.194898,59.5094445 L181.194898,59.5094445 Z M132.355014,58.8542577 C132.009898,58.3458965 131.895464,57.7904792 131.884047,57.1898055 C131.817878,53.4996227 135.824338,46.8916986 138.651954,43.291771 L138.657922,43.291771 C139.842734,45.8631478 142.526335,47.5160288 144.146304,48.2126148 C142.134512,52.654154 135.234008,62.1661911 132.355014,58.8542577 L132.355014,58.8542577 Z M145.282074,46.2269977 C145.090573,46.3596807 141.70662,45.2298177 141.052456,42.1248802 C140.497676,39.4516769 142.355334,37.3629475 144.152532,36.3102259 C144.923983,35.7074951 146.08596,35.5012707 146.938371,35.8010933 C147.729543,36.3289969 147.943878,37.2706351 147.943878,38.2850432 C147.943878,38.9073164 147.860583,39.5465607 147.787149,40.129749 L147.771061,40.2619177 C147.204294,42.348267 146.367697,44.3532464 145.282074,46.2269977 L145.282074,46.2269977 Z M172.423502,57.668853 C172.420648,57.668853 171.781275,58.2332702 171.781275,58.2332702 C170.868404,59.0422254 169.929066,59.9077508 168.795113,59.474731 C168.481914,59.3621047 168.261611,58.9483701 168.208676,58.6274623 C168.157038,56.3127089 169.208734,54.1679235 170.229031,52.0791941 L170.490593,51.5332908 C173.424858,46.6782743 176.835538,40.9574752 181.844651,36.9872694 C182.688758,36.3837672 183.604742,35.8766917 184.571586,36.2721695 C184.793965,36.4789082 185.052932,36.8365867 185.052932,37.1937509 C185.052932,37.3071486 184.951214,37.6079997 184.892829,37.701855 C183.493682,39.9422956 182.161483,42.2940768 180.86587,44.5522599 C178.333809,49.012313 175.707035,53.6220202 172.423502,57.668853 L172.423502,57.668853 Z" id="Shape"></path>
                </g>
            </g>
        </g>
    </g>
</svg>