<?xml version="1.0" encoding="UTF-8"?>
<svg width="212px" height="60px" viewBox="0 0 212 60" version="1.1" xmlns="http://www.w3.org/2000/svg" xmlns:xlink="http://www.w3.org/1999/xlink">
    <!-- Generator: Sketch 53.2 (72643) - https://sketchapp.com -->
    <title>instagram</title>
    <desc>Created with Sketch.</desc>
    <g id="Page-1" stroke="none" stroke-width="1" fill="none" fill-rule="evenodd">
        <g id="Desktop" transform="translate(-1044.000000, -2741.000000)" fill="#000000" fill-rule="nonzero">
            <g id="Brands" transform="translate(-68.000000, 2176.000000)">
                <g id="instagram" transform="translate(1112.000000, 565.000000)">
                    <path d="M12.147227,0 C10.2084582,0 7.69501928,2.06065548 6.21229404,3.43236968 C2.95250553,6.33255933 0,11.66542 0,15.9458319 C0,22.0280412 5.16078359,24.3239449 6.46609959,24.3239449 C6.89646553,24.3239449 7.26338007,24.1014588 7.26338007,23.5161033 C7.26338007,23.0573054 6.97307406,22.6755056 6.68425353,22.2832834 C5.48907555,20.4519205 5.10518405,18.7041495 5.10518405,16.3467749 C5.10518405,11.4318734 7.36672731,6.92684829 9.24268138,4.86534201 C9.58858694,4.49226297 10.3701637,3.68633568 10.6040213,3.68633568 C10.8361813,3.68633568 10.8936907,3.87585302 10.8936907,4.4616339 L10.675749,36.6308737 C10.675749,41.6597834 9.22803875,43.6574791 9.22803875,44.8415903 C9.22803875,45.361859 9.45277126,45.4969247 9.88186392,45.4969247 C11.9135816,45.4969247 13.9382963,43.0149069 14.5119053,42.1096478 C16.2906663,39.0301505 16.7269741,36.6261942 16.7269741,29.6921141 L16.7269741,2.66026198 C16.7269741,1.92856763 16.5221896,1.61227999 15.8286808,1.16113937 C14.8145196,0.515589273 13.6524467,0 12.147227,0 Z M70.2387761,0.0897601787 C69.2831855,0.0897601787 68.8746774,0.590460322 68.8294762,2.13978056 L68.6174764,8.55486821 L63.0199605,8.36045873 C62.6804213,8.35173795 62.5269921,8.45936508 62.3784437,8.75842388 C61.9030888,9.65177163 61.6528908,10.3517734 61.6528908,11.5173795 C61.6528908,12.4664551 62.0821957,12.5677012 62.4650262,12.5677012 L68.2889722,12.7353103 L68.2711464,24.9914033 C68.2711464,27.5908326 66.6345675,30.9630076 63.7306585,33.7676941 C63.7306585,33.7676941 63.980432,32.9209281 63.9662138,32.0324725 C63.9662138,29.5176986 62.3514927,27.238811 60.1988142,25.6261056 L54.9446574,21.664321 C56.0460376,20.3872592 57.9120177,17.8544056 57.9120177,15.7156885 C57.9120177,14.0574649 56.8717545,13.3608664 54.9325613,13.3608664 C52.1956631,13.3608664 49.0216083,15.8733006 49.0216083,19.5996242 C49.0216083,20.9579382 49.6245026,22.1805484 50.5410462,23.1155857 C49.275626,25.5220944 47.4851934,28.6883741 46.1556852,30.9432263 C45.1514981,32.6697272 43.452741,35.3148874 42.447705,35.3148874 C41.7066607,35.3148874 41.3641505,34.1463034 41.3641505,29.6565929 C41.3641505,25.9264406 41.6285667,21.8708545 41.7611992,17.9779854 C41.7611992,17.0857011 41.6151973,16.262545 40.4594908,15.4555542 C39.3963087,14.7727813 38.083353,13.8192389 36.730926,13.8192389 C33.7243064,13.8192389 31.6760362,16.5922328 30.2709805,19.303756 C28.8169039,22.1139727 28.0306584,24.4821951 26.9214263,27.9181807 L27.0438727,16.0930216 C27.0816464,15.2498715 26.8692222,14.9225234 26.1960857,14.6355886 C25.3228333,14.2644238 24.0374653,13.8364677 22.8972502,13.8364677 C21.9444183,13.8364677 21.8285506,14.2482585 21.8285506,15.2517858 L21.7003745,29.4409132 L21.6857319,34.913519 C21.6857319,39.8475637 22.3022078,40.6702944 25.2233059,40.6702944 C26.8405736,40.6702944 27.3585831,40.4799263 27.3906271,39.1324601 C27.4349794,38.2412393 27.8602522,36.0821029 28.4355589,33.9167981 C30.1181879,27.5255331 32.1119196,22.470461 35.5495418,18.6175798 C35.9079678,18.24365 36.1851167,18.3774394 36.1286683,18.9077051 C36.1286683,18.9077051 35.5851934,27.5572257 35.5851934,31.0950954 C35.5851934,37.3872414 36.5511824,40.6705071 39.6747308,40.6705071 C42.7403453,40.6705071 45.7512092,36.7225482 47.3947911,34.057394 L52.6671982,25.2183562 C56.0835992,28.1362001 58.4675887,30.3984969 58.4675887,33.1506461 C58.4675887,34.8611943 57.3908251,36.5347324 55.7506385,36.5347324 C53.7008828,36.5347324 52.3913226,34.3681514 51.0068515,34.3681514 C49.8577235,34.3681514 48.3828502,36.5917365 48.3828502,37.8543347 C48.3828502,39.0463158 50.9779907,40.7326161 55.6343464,40.7326161 C62.5081052,40.7326161 66.1955009,36.0044667 68.4084476,30.7685981 C68.8320228,36.9828952 71.3023826,40.6128649 75.1553037,40.6128649 C77.6825364,40.6128649 80.6034223,37.412553 81.9320816,33.5033057 C81.9320816,33.5033057 82.0632286,34.5181062 83.0722967,36.5972668 C84.4612242,39.3124058 86.5727336,40.5590513 89.1954617,40.5590513 C92.4575845,40.5590513 95.2477479,38.5768829 96.9511736,35.2508641 C97.2094356,37.7711683 99.3207328,40.5467146 102.715913,40.5467146 C104.847158,40.5467146 106.790171,38.9099739 108.065565,36.2139781 C108.065565,36.2139781 109.717635,40.6666785 114.496013,40.6666785 C117.179858,40.6666785 120.357945,38.1746637 121.117452,36.3639329 L121.201063,38.9971817 L114.111272,45.5503128 C112.052604,47.5533261 109.862788,50.4311821 109.862788,53.6174557 C109.862788,57.6698513 113.680058,60 117.039374,60 C120.531322,60 122.848253,57.7825833 124.117493,55.9246326 C125.714812,53.5204637 126.389434,48.9892763 126.389434,44.5599731 L126.231124,37.8996402 C131.009502,32.6350568 134.749314,25.358314 136.414117,20.2096531 L140.041244,20.1139373 C140.743878,20.0665048 140.708863,20.343868 140.61167,20.7543825 C139.974185,23.4544198 139.417553,26.5122215 139.417553,29.5574738 C139.417553,34.5885106 140.573684,36.7778506 142.235516,38.5670986 C143.680468,40.0662212 145.117355,40.5718135 146.62979,40.5718135 C149.587601,40.5718135 151.444456,38.1236152 152.033344,36.5802506 C153.422272,39.2953897 155.46842,40.5599022 158.090511,40.5599022 C161.352846,40.5599022 164.14301,38.5777337 165.846648,35.2517149 C166.10491,37.7720191 168.215782,40.5475655 171.611174,40.5475655 C174.147744,40.5475655 175.61901,39.0805608 176.77599,36.3165003 C176.799333,37.2055941 176.8335,38.1533935 176.859602,39.0420618 C176.89016,39.5019232 177.256862,39.7928993 177.585154,39.9128631 C178.663404,40.3218888 179.609869,40.526508 180.45999,40.526508 C182.677181,40.526508 183.15869,40.0700498 183.15869,38.6172962 C183.15869,36.2212099 183.22872,32.4353298 183.908011,29.3956077 C184.629107,26.3692859 185.71733,22.9432972 187.218943,20.5595477 C187.354122,20.3132389 187.685385,20.3779003 187.699815,20.676321 C187.915422,25.7766985 188.25581,34.4106918 189.592534,36.6457628 C190.252089,37.7118245 191.272192,38.4888243 192.798633,38.4888243 C193.514424,38.4888243 194.39192,38.182959 194.616441,37.9921655 C194.843932,37.8143467 194.958526,37.6167467 194.944733,37.2502614 C194.944733,30.7300991 196.973479,24.4177464 199.004985,20.1737065 C199.060796,20.047787 199.219107,20.0380027 199.213801,20.2036975 L199.10048,24.9016431 C199.10048,32.6176153 199.655414,37.4923161 203.500696,39.8358651 C204.256764,40.2598871 205.10914,40.4813483 205.975512,40.4788628 C207.94293,40.4788628 209.726996,39.3774926 210.608737,37.6063243 C211.327074,36.2299307 211.999999,33.5807292 211.999999,32.0801177 C211.999999,31.499229 212.006789,30.5537693 211.056716,30.5537693 C210.535736,30.5537693 210.222723,30.9387596 210.098155,31.5202864 C209.795328,32.7807576 209.546828,33.8617084 209.076991,35.1079285 C208.62795,36.2975699 207.957785,36.9903398 207.163263,36.9903398 C206.229954,36.9903398 205.756297,36.2541787 205.485515,35.7992095 C204.294581,33.9784817 204.199086,29.7959126 204.199086,26.3048372 L204.485784,17.3192477 C204.485784,16.5758548 204.176167,15.686123 203.031707,15.0301505 C202.2635,14.5868798 200.320487,13.7524505 199.129978,13.7524505 C198.026051,13.7524505 197.491701,14.3790701 197.093803,15.2990056 C196.346605,16.9512736 193.849719,23.4320861 193.18019,28.7011362 C193.15621,28.8400305 192.983469,28.8693833 192.971373,28.6922027 C192.623345,24.9660918 192.444875,20.4765939 192.448695,17.4477197 C192.448695,16.5320382 192.225236,15.2230711 190.287316,14.3748161 C189.345519,13.983232 188.566489,13.743517 187.615142,13.743517 C186.434819,13.743517 186.181014,14.3224914 185.758287,15.089707 C184.42114,17.5659819 183.496532,20.7952213 182.110575,24.8684616 L182.131584,15.5478668 C182.131584,15.1120407 181.865046,14.5407235 181.101507,14.3869401 C179.208364,13.9509013 178.331292,13.7528759 177.584942,13.7528759 C177.041467,13.7528759 176.742885,14.1870004 176.742885,14.6564333 L176.641235,30.548239 C176.274958,32.4936101 174.790959,37.1371041 172.685604,37.1371041 C170.957562,37.1371041 170.151156,35.3823138 170.151156,28.047078 L170.464805,16.1257777 C170.464805,15.3728132 169.971625,15.0565255 169.252863,14.7376854 C168.22512,14.3284471 167.407467,14.1659429 166.36296,14.1659429 C165.051914,14.1659429 164.602024,14.7949022 164.867289,16.3057235 C163.426158,14.3514189 161.98545,13.2713189 159.44018,13.2713189 C154.330115,13.2713189 150.478255,19.4322279 150.478255,28.3852739 C150.428173,30.8957938 151.033401,33.3909992 151.033401,33.3909992 C150.570991,35.4746264 149.484042,37.1730507 147.98243,37.1730507 C146.088013,37.1730507 144.880739,34.4885407 144.880739,29.8361132 C144.880739,25.1698601 146.653982,19.9069784 146.653982,18.4805998 C146.653982,16.8221635 145.569791,15.7729053 143.650758,15.7729053 C142.689438,15.7729053 139.123215,16.5837248 137.295009,16.8498148 C137.295009,16.8498148 137.501279,15.9770991 137.486,15.2909229 C137.486,13.6556712 136.720551,12.6308737 134.820193,12.6308737 C132.497957,12.6308737 130.792833,14.2929259 130.792833,17.1284542 C130.792833,18.4006239 131.523904,19.5777159 132.49159,20.2100785 C131.235507,25.4612617 129.193179,29.3664676 126.183589,33.7291951 L126.437182,16.0630306 C126.437182,15.4887357 126.284602,15.1320347 125.162212,14.6953578 C124.568868,14.438414 123.601817,14.1416949 122.382872,14.1416949 C120.616207,14.1416949 120.733136,15.4062073 120.82757,16.3529433 C120.019254,14.916355 118.249619,13.2111243 115.519511,13.2111243 C108.079783,13.2111243 105.795745,24.582165 106.9158,32.6576032 C106.9158,33.6422 105.956602,37.1371041 103.79013,37.1371041 C102.062087,37.1371041 101.255682,35.3823138 101.255682,28.047078 L101.572302,16.1257777 C101.572302,15.3726005 101.075726,15.0563128 100.356964,14.7376854 C99.3292213,14.3284471 98.5145394,14.1659429 97.4700319,14.1659429 C96.158774,14.1659429 95.7088846,14.7949022 95.9741496,16.3055108 C94.5330179,14.3512062 93.0893397,13.2711062 90.5438567,13.2711062 C85.4337918,13.2711062 81.531001,18.9055781 81.531001,27.8581988 C81.531001,31.2756793 78.5952602,36.4907032 76.5365916,36.4907032 C75.3929811,36.4907032 74.1753087,34.3864438 74.1753087,29.010192 C74.1810384,25.3455519 74.6797366,12.8701632 74.6797366,12.8701632 L81.8654471,12.7533899 C82.2083817,12.7501994 82.4070121,12.3745679 82.5341271,12.1431483 C82.8641167,11.472074 83.0237001,11.0251874 83.0237001,10.222238 C83.0237001,9.49777549 82.8789716,9.2331744 81.9520296,9.18084974 L74.7900868,8.74991581 L75.0948233,2.06256979 C75.1162567,1.64035663 74.8620267,1.36512044 74.4021633,1.15901235 C73.0157823,0.61555914 71.3155398,0.0899728805 70.2387761,0.0897601787 Z M91.9866861,17.6121382 C93.902536,17.6121382 95.8466102,19.3635252 95.8466102,25.5771842 C95.8466102,33.4007835 93.0029694,37.0407501 90.8163369,37.0407501 C88.766369,37.0407501 87.2102185,34.1405605 87.2102185,28.4439797 C87.2102185,22.685928 88.7298686,17.6121382 91.9866861,17.6121382 Z M160.983385,17.6121382 C162.899235,17.6121382 164.843309,19.3635252 164.843309,25.5771842 C164.843309,33.4007835 161.999669,37.0407501 159.813036,37.0407501 C157.763068,37.0407501 156.206706,34.1405605 156.206706,28.4439797 C156.206918,22.685928 157.726568,17.6121382 160.983385,17.6121382 Z M117.221664,17.6480848 C119.721945,17.6480848 120.827994,20.231136 120.827994,25.2389882 C120.827994,32.7892656 118.588733,37.0881826 115.869237,37.0881826 C114.13313,37.0881826 112.136852,34.2309588 112.242109,28.6111633 C112.242109,25.017991 113.410973,17.6480848 117.221664,17.6480848 L117.221664,17.6480848 Z M121.454656,42.9055781 L121.454656,45.8795753 C121.454656,55.7480901 118.831079,57.432476 116.722966,57.432476 C115.9242,57.432476 113.967605,56.8277647 113.967605,54.3863729 C113.967605,50.9735718 117.527461,47.091125 118.633722,45.8914866 L121.454656,42.9055781 L121.454656,42.9055781 Z" id="Shape"></path>
                </g>
            </g>
        </g>
    </g>
</svg>