<?xml version="1.0" encoding="UTF-8"?>
<svg width="140px" height="73px" viewBox="0 0 140 73" version="1.1" xmlns="http://www.w3.org/2000/svg" xmlns:xlink="http://www.w3.org/1999/xlink">
    <!-- Generator: Sketch 53.2 (72643) - https://sketchapp.com -->
    <title>nike</title>
    <desc>Created with Sketch.</desc>
    <g id="Page-1" stroke="none" stroke-width="1" fill="none" fill-rule="evenodd">
        <g id="Desktop" transform="translate(-760.000000, -2735.000000)" fill="#000000">
            <g id="Brands" transform="translate(-68.000000, 2176.000000)">
                <path d="M941.353858,561 C941.591246,561 941.75816,560.954137 941.855341,560.860612 C941.952522,560.767086 942,560.646583 942,560.5 C942,560.351619 941.954006,560.232014 941.86276,560.139388 C941.768546,560.045863 941.612018,560 941.388724,560 L941,560 L941.353858,561 Z M941,560 L942.034049,560 C942.326873,560 942.538502,560.051537 942.670508,560.152803 C942.801467,560.256329 942.867994,560.393309 942.867994,560.564647 C942.867994,560.698915 942.816658,560.815099 942.716606,560.913201 C942.617601,561.011302 942.459927,561.082731 942.245155,561.126582 C942.334206,561.15642 942.39759,561.187161 942.440545,561.219711 C942.49869,561.264919 942.561027,561.333183 942.624411,561.422694 C942.628601,561.429024 942.754322,561.621609 943,562 L942.317444,562 C942.095862,561.619801 941.947093,561.392857 941.871661,561.318264 C941.795705,561.245027 941.720272,561.207957 941.644316,561.207957 C941.62703,561.207957 941.604505,561.210217 941.573599,561.214286 L941.573599,562 L941,562 L941,560 Z M943,560.50045 C943,560.085757 942.853109,559.732234 942.560679,559.43988 C942.267798,559.147076 941.914088,559 941.499549,559 C941.085912,559 940.732202,559.147076 940.438871,559.43988 C940.14599,559.732234 940,560.085757 940,560.50045 C940,560.913343 940.14599,561.267766 940.438871,561.56012 C940.732202,561.852474 941.085912,562 941.499549,562 C941.914088,562 942.267798,561.852474 942.560679,561.56012 C942.853109,561.267766 943,560.913343 943,560.50045 Z M944,561.000484 C944,561.358354 943.910896,561.69201 943.732203,562.000969 C943.553511,562.310412 943.309443,562.553995 943.000969,562.733172 C942.691525,562.91138 942.357869,563 941.999516,563 C941.643584,563 941.310896,562.91138 941.001453,562.733172 C940.69201,562.553995 940.448426,562.310412 940.269249,562.000969 C940.089588,561.69201 940,561.358354 940,561.000484 C940,560.643099 940.089588,560.309927 940.269249,559.999516 C940.448426,559.690073 940.69201,559.446005 941.001453,559.266828 C941.310896,559.089104 941.643584,559 941.999516,559 C942.357869,559 942.691525,559.089104 943.000969,559.266828 C943.309443,559.446005 943.553511,559.690073 943.732203,559.999516 C943.910896,560.309927 944,560.643099 944,561.000484 Z M851,606 L851.354074,606 C851.591111,606 851.757037,605.955036 851.854074,605.859712 C851.94963,605.767986 852,605.646583 852,605.5 C852,605.351619 851.952593,605.232014 851.86,605.140288 C851.765926,605.045863 851.61037,605 851.387407,605 L851,605 L851,606 Z M851,605 L852.034049,605 C852.326873,605 852.538502,605.050215 852.670508,605.151549 C852.800943,605.255146 852.866946,605.391767 852.866946,605.563673 C852.866946,605.69758 852.817182,605.814295 852.717129,605.912463 C852.616029,606.010631 852.458879,606.081203 852.243583,606.125537 C852.332111,606.155395 852.398114,606.186609 852.440545,606.219181 C852.498167,606.264872 852.560503,606.333183 852.624411,606.42185 C852.629125,606.429088 852.753798,606.6209 853,607 L852.317968,607 C852.095862,606.6209 851.946569,606.392445 851.871661,606.319159 C851.796228,606.244515 851.719749,606.206514 851.643793,606.206514 C851.627554,606.206514 851.603457,606.208324 851.573075,606.214657 L851.573075,607 L851,607 L851,605 Z M853,605.5 C853,605.085633 852.852703,604.732004 852.55991,604.439112 C852.267117,604.145321 851.913964,604 851.49955,604 C851.086036,604 850.732883,604.145321 850.43964,604.439112 C850.146396,604.732004 850,605.085633 850,605.5 C850,605.913017 850.146396,606.267546 850.43964,606.560888 C850.732883,606.852879 851.086036,607 851.49955,607 C851.913964,607 852.267117,606.852879 852.55991,606.560888 C852.852703,606.267546 853,605.913017 853,605.5 Z M854,606.000242 C854,606.358155 853.910412,606.690883 853.731719,607.001332 C853.553027,607.310812 853.308475,607.55491 852.999031,607.733624 C852.690073,607.911369 852.355932,608 851.999031,608 C851.643099,608 851.310412,607.911369 851.000969,607.733624 C850.691525,607.55491 850.446973,607.310812 850.268281,607.001332 C850.090073,606.690883 850,606.358155 850,606.000242 C850,605.64233 850.090073,605.309117 850.268281,604.999637 C850.446973,604.689188 850.691525,604.445575 851.000969,604.267345 C851.310412,604.088631 851.643099,604 851.999031,604 C852.355932,604 852.690073,604.088631 852.999031,604.267345 C853.308475,604.445575 853.553027,604.689188 853.731719,604.999637 C853.910412,605.309117 854,605.64233 854,606.000242 Z M847,597 L855.795841,597 L862.129174,580.432311 L861.425014,597 L870.749088,597 L885,559 L876.291667,559 L869.781496,575.7866 L870.837963,559 L861.425014,559 L847,597 Z M886.133484,559 L872,597 L880.778279,597 L895,559 L886.133484,559 Z M906.759715,594 L919,560 L906,574.224114 L906.759715,594 Z M841.967047,596.930032 C841.967047,596.930032 841.638727,610.841504 856.014948,610.841504 L857.983958,610.841504 C857.983958,610.841504 860.872171,611.759506 910.627534,596.930032 L898.025781,596.930032 L897.368689,581.311304 L891.461206,596.930032 L882.402944,596.930032 L896.712957,559 L905.378051,559 L901.439578,569.893625 L910.759497,559 L938.067604,559 L935.703614,565.299988 L926.382334,565.299988 L923.495027,573.305419 L932.159215,573.305419 L929.402964,580.392848 L920.868925,580.392848 L917.456035,589.710683 L927.696972,589.710683 L926.908824,592.466502 C926.908824,592.466502 964.061073,582.886187 968,581.836265 C968,581.836265 862.112892,631.999978 844.783157,631.999978 C844.783157,631.999978 828.051109,632.101978 828.051109,618.452534 C828.051109,618.452534 826.1474,605.722905 845.5772,584.199043 C845.5772,584.199043 841.967047,591.023539 841.967047,596.930032 Z" id="nike"></path>
            </g>
        </g>
    </g>
</svg>