<?xml version="1.0" encoding="UTF-8"?>
<svg width="212px" height="60px" viewBox="0 0 212 60" version="1.1" xmlns="http://www.w3.org/2000/svg" xmlns:xlink="http://www.w3.org/1999/xlink">
    <!-- Generator: Sketch 53.2 (72643) - https://sketchapp.com -->
    <title>nodejs</title>
    <desc>Created with Sketch.</desc>
    <g id="Page-1" stroke="none" stroke-width="1" fill="none" fill-rule="evenodd">
        <g id="Desktop" transform="translate(-1044.000000, -2594.000000)" fill="#000000" fill-rule="nonzero">
            <g id="Brands" transform="translate(-68.000000, 2176.000000)">
                <g id="nodejs" transform="translate(1112.000000, 418.000000)">
                    <g id="Group" transform="translate(177.000000, 21.000000)">
                        <path d="M17.2323838,0.252827586 C16.7101649,0.252827586 16.2022189,0.359172414 15.7526237,0.609931034 L1.52677661,8.70786207 C0.606176912,9.23089655 0.0465967016,10.2182069 0.0465967016,11.2688276 L0.0465967016,27.4353103 C0.0465967016,28.4851034 0.606176912,29.4711724 1.52677661,29.9954483 L5.24191904,32.1095172 C7.04701649,32.9863448 7.71238381,32.9726897 8.53391304,32.9726897 C11.2062969,32.9726897 12.7322339,31.3742069 12.7322339,28.5964138 L12.7322339,12.638069 C12.7322339,12.4125517 12.534093,12.2511724 12.3095052,12.2511724 L10.5274963,12.2511724 C10.2991304,12.2511724 10.1047676,12.4125517 10.1047676,12.638069 L10.1047676,28.5964138 C10.1047676,29.8274483 8.80341829,31.065931 6.69187406,30.0252414 L2.8256072,27.7924138 C2.68875562,27.7191724 2.5838081,27.5896552 2.5838081,27.4353103 L2.5838081,11.2684138 C2.5838081,11.1153103 2.68749625,10.9593103 2.8256072,10.8815172 L17.0212294,2.8137931 C17.1518098,2.73858185 17.3133776,2.73858185 17.443958,2.8137931 L31.64,10.881931 C31.7751724,10.9622069 31.8817991,11.1107586 31.8817991,11.2692414 L31.8817991,27.4357241 C31.8817991,27.590069 31.8028786,27.7481379 31.6702249,27.8226207 L17.443958,35.8907586 C17.3222189,35.9623448 17.1543028,35.9623448 17.0212294,35.8907586 L13.3665367,33.7473103 C13.2535526,33.6869009 13.117242,33.6869009 13.0042579,33.7473103 C11.9955022,34.3108966 11.8057571,34.3762759 10.8595502,34.6998621 C10.6265667,34.7801379 10.2726837,34.9046897 10.9804498,35.2957241 L15.7526237,38.064 C16.2025766,38.3198856 16.7133408,38.4535344 17.2328036,38.4513103 C17.7522044,38.4545028 18.2630506,38.3209375 18.7125637,38.0644138 L32.9388306,29.9958621 C33.8594303,29.4682759 34.4185907,28.4855172 34.4185907,27.4357241 L34.4185907,11.2688276 C34.4185907,10.2186207 33.8594303,9.23296552 32.9388306,8.70868966 L18.7125637,0.610758621 C18.2667466,0.359586207 17.7554423,0.253241379 17.2328036,0.253241379 L17.2323838,0.252827586 Z" id="Path"></path>
                        <path d="M21.0382009,11.8046897 C16.9872264,11.8046897 14.5746927,13.5041379 14.5746927,16.3303448 C14.5746927,19.3957241 16.9691754,20.2382069 20.8572714,20.6172414 C25.5085457,21.0662069 25.8708246,21.7394483 25.8708246,22.641931 C25.8708246,24.2073103 24.6047376,24.8747586 21.6124738,24.8747586 C17.8524138,24.8747586 17.0262669,23.9495172 16.7496252,22.106069 C16.7168816,21.9082759 16.561979,21.7485517 16.3567016,21.7485517 L14.5142429,21.7485517 C14.2875562,21.7485517 14.0915142,21.9413793 14.0915142,22.1656552 C14.0915142,24.5255172 15.3937031,27.3161379 21.6124738,27.3161379 C26.1138831,27.3161379 28.7102849,25.5744828 28.7102849,22.5227586 C28.7102849,19.497931 26.6130135,18.6856552 22.2463568,18.1166897 C17.8343628,17.5411034 17.4137331,17.2593103 17.4137331,16.2409655 C17.4137331,15.4001379 17.7705547,14.2754483 21.0382009,14.2754483 C23.9574213,14.2754483 25.0362819,14.8961379 25.4783208,16.8364138 C25.5169415,17.0184828 25.6798201,17.1637241 25.8708246,17.1637241 L27.7137031,17.1637241 C27.8270465,17.1637241 27.9370315,17.0950345 28.0155322,17.0147586 C28.0927736,16.9291034 28.1473463,16.8326897 28.1364318,16.7172414 C27.8509745,13.3762759 25.5908246,11.8046897 21.0382009,11.8046897 L21.0382009,11.8046897 Z" id="Path"></path>
                    </g>
                    <path d="M112.387681,0.000193110916 C112.230559,0.000297559405 112.076175,0.0414151466 111.939729,0.119496846 C111.663886,0.281262815 111.49374,0.576954196 111.492193,0.897257434 L111.492193,23.7778017 C111.492193,24.0022756 111.388085,24.2034708 111.193973,24.3161234 C111.000298,24.4291892 110.760931,24.4291892 110.567256,24.3161234 L106.836817,22.1628365 C106.282976,21.8416706 105.600096,21.8416706 105.046256,22.1628365 L90.1547772,30.7763999 C89.5981562,31.0985615 89.259704,31.7175276 89.259704,32.3618509 L89.259704,49.5893934 C89.259704,50.2328854 89.5985709,50.8223373 90.1547772,51.1444989 L105.046256,59.758478 C105.599865,60.0805073 106.283208,60.0805073 106.836817,59.758478 L121.728296,51.1444989 C122.283247,50.8243789 122.624865,50.2311241 122.623783,49.5893934 L122.623783,6.64004873 C122.62296,5.98316048 122.269623,5.3775001 121.698847,5.0545977 L112.835217,0.0895669893 C112.696269,0.0118324997 112.541975,-0.00188535137 112.387681,0.000193110916 L112.387681,0.000193110916 Z M16.592457,21.5047953 C16.3087545,21.516019 16.0416427,21.5659021 15.7869741,21.7138886 L0.895080678,30.3278677 C0.339784024,30.6475869 -0.00185009234,31.241144 7.53722067e-06,31.8829732 L0.0298709599,55.003372 C0.0298709599,55.3247023 0.195364094,55.6235852 0.47740753,55.7807169 C0.752947485,55.9466422 1.09735549,55.9466422 1.37289544,55.7807169 L10.206247,50.6963825 C10.7657714,50.3629971 11.1311836,49.7835218 11.1311836,49.1408613 L11.1311836,38.3436654 C11.1311836,37.6993421 11.4692209,37.1082274 12.0266715,36.7881442 L15.7865593,34.6049274 C16.05841,34.4465098 16.3675875,34.3638408 16.6820473,34.3654886 C16.9889769,34.3654886 17.3042019,34.4423917 17.5771204,34.6049274 L21.337423,36.7881442 C21.893262,37.1075761 22.2351795,37.7015091 22.2329109,38.3436654 L22.2329109,49.1404456 C22.2329109,49.7831061 22.602056,50.3667383 23.1578475,50.6959668 L31.9911991,55.7807169 C32.266739,55.9466422 32.611147,55.9466422 32.886687,55.7807169 C33.1636796,55.6200442 33.3343539,55.323709 33.3346383,55.0029563 L33.3636722,31.8829732 C33.3672717,31.2406806 33.025168,30.6463077 32.4685991,30.3278677 L17.5771204,21.7138886 C17.3253551,21.5659021 17.0574139,21.5164347 16.7716375,21.5047953 L16.592457,21.5047953 Z M150.407136,21.7138886 C150.096058,21.7138886 149.791203,21.7928702 149.512063,21.9533275 L134.620584,30.5673066 C134.065507,30.8873001 133.723842,31.4806353 133.725096,32.1224121 L133.725096,49.3499546 C133.725096,49.9980191 134.089264,50.5849769 134.650033,50.9054758 L149.422472,59.3398757 C149.967895,59.6516451 150.634015,59.6753395 151.18317,59.3689742 L160.135975,54.3744293 C160.420093,54.2164662 160.612131,53.9213245 160.613375,53.5970844 C160.616488,53.2755369 160.445091,52.97767 160.165839,52.8193238 L145.18477,44.2053447 C144.904385,44.0448874 144.70737,43.7202316 144.70737,43.3976543 L144.70737,38.014437 C144.70737,37.6922753 144.906459,37.3971337 145.18477,37.2366764 L149.840146,34.544652 C150.117118,34.3839889 150.458661,34.3839889 150.735633,34.544652 L155.390594,37.2366764 C155.668212,37.3965198 155.839142,37.693141 155.838546,38.0140213 L155.838546,42.2611511 C155.837692,42.5819915 156.008499,42.8786733 156.286082,43.038496 C156.565222,43.2002004 156.902845,43.2006161 157.181155,43.038496 L166.104512,37.8352735 C166.658525,37.5140102 166.999773,36.9212408 167,36.2797523 L167,32.1228278 C167,31.4805829 166.659889,30.8898839 166.104512,30.5673066 L151.302624,21.9533275 C151.030516,21.7955784 150.721485,21.7130921 150.407136,21.7143043 L150.407136,21.7138886 Z M105.881602,34.5749976 C105.959579,34.5749976 106.050828,34.5941194 106.12051,34.6344416 L111.223837,37.595419 C111.36237,37.6756476 111.462744,37.8240498 111.462744,37.9840914 L111.462744,43.9060462 C111.462744,44.0669191 111.363199,44.2149057 111.223837,44.2951343 L106.12051,47.2561117 C105.981838,47.3354705 105.811644,47.3354705 105.672973,47.2561117 L100.570061,44.2951343 C100.431113,44.21449 100.331153,44.0669191 100.331153,43.9060462 L100.331153,37.9840914 C100.331153,37.8236341 100.431527,37.676479 100.570061,37.595419 L105.672973,34.6348573 C105.735699,34.595756 105.808148,34.5751546 105.882017,34.5754133 L105.882017,34.5749976 L105.881602,34.5749976 Z" id="Shape"></path>
                    <path d="M60.6933721,22.0000048 C60.3829136,22.0000048 60.0757755,22.078889 59.7976909,22.2391487 L44.8960962,30.8126227 C44.338682,31.1335571 44,31.7530061 44,32.3957053 L44,49.6020242 C44,50.2455537 44.3390971,50.833449 44.8960962,51.155629 L59.7976909,59.7585808 C60.3516061,60.0804731 61.0355532,60.0804731 61.5894684,59.7585808 L76.4910631,51.155629 C77.0463603,50.8357236 77.3880608,50.2430266 77.3867442,49.6020242 L77.3867442,32.3957053 C77.3867442,31.7521758 77.0480622,31.1335571 76.4910631,30.8126227 L61.5894684,22.2391487 C61.3170788,22.0817811 61.0079269,21.9992768 60.6933721,22.0000048 L60.6933721,22.0000048 Z M149.804518,37.3546193 C149.745166,37.3546193 149.679173,37.3546193 149.625631,37.3845123 L146.75887,39.0572739 C146.650033,39.1177457 146.581691,39.2316837 146.579568,39.3562037 L146.579568,42.6419409 C146.579568,42.7656647 146.650957,42.8790089 146.75887,42.9408708 L149.625631,44.5837394 C149.733129,44.6460164 149.847684,44.6460164 149.953937,44.5837394 L152.820698,42.9404556 C152.929043,42.8796804 152.997225,42.7661661 153,42.6419409 L153,39.3557885 C152.997225,39.2315634 152.929043,39.1180491 152.820698,39.0572739 L149.953937,37.3840971 C149.90081,37.3529586 149.864286,37.3550345 149.804518,37.3550345 L149.804518,37.3546193 Z" id="Shape"></path>
                </g>
            </g>
        </g>
    </g>
</svg>