<?xml version="1.0" encoding="UTF-8"?>
<svg width="220px" height="68px" viewBox="0 0 220 68" version="1.1" xmlns="http://www.w3.org/2000/svg" xmlns:xlink="http://www.w3.org/1999/xlink">
    <!-- Generator: Sketch 53.2 (72643) - https://sketchapp.com -->
    <title>airbnb</title>
    <desc>Created with Sketch.</desc>
    <g id="Page-1" stroke="none" stroke-width="1" fill="none" fill-rule="evenodd">
        <g id="Desktop" transform="translate(-720.000000, -2464.000000)" fill="#000000" fill-rule="nonzero">
            <g id="Brands" transform="translate(-68.000000, 2176.000000)">
                <g id="airbnb" transform="translate(788.000000, 288.000000)">
                    <path d="M115.946996,17.0860183 C115.946996,19.5366893 113.953147,21.5100098 111.478686,21.5100098 C109.004225,21.5100098 107.011748,19.5366893 107.011748,17.0860183 C107.011748,14.6353473 108.936253,12.6620268 111.478686,12.6620268 C114.023178,12.7300254 115.946996,14.7040259 115.946996,17.0860183 L115.946996,17.0860183 Z M97.5272301,26.0033599 L97.5272301,27.0926981 C97.5272301,27.0926981 95.397436,24.3686726 90.8611532,24.3686726 C83.3704849,24.3686726 77.5276263,30.0186796 77.5276263,37.8460031 C77.5276263,45.6060079 83.3018262,51.3233335 90.8611532,51.3233335 C95.4660948,51.3233335 97.5272301,48.5326693 97.5272301,48.5326693 L97.5272301,49.6893262 C97.5272301,50.2339953 97.9405557,50.6413072 98.4898256,50.6413072 L104.055989,50.6413072 L104.055989,25.0472991 L98.4898256,25.0472991 C97.9405557,25.049339 97.5272301,25.5266895 97.5272301,26.0033599 L97.5272301,26.0033599 Z M97.5272301,42.4066719 C96.497349,43.9046819 94.4348405,45.198016 91.9610662,45.198016 C87.5627875,45.198016 84.1943898,42.4753505 84.1943898,37.8460031 C84.1943898,33.2173357 87.5627875,30.4946701 91.9610662,30.4946701 C94.3668684,30.4946701 96.5660077,31.8560029 97.5272301,33.2853343 L97.5272301,42.4066719 Z M108.18032,25.049339 L114.777738,25.049339 L114.777738,50.6433471 L108.18032,50.6433471 L108.18032,25.049339 L108.18032,25.049339 Z M206.736505,24.3679926 C202.200222,24.3679926 200.069055,27.0920182 200.069055,27.0920182 L200.069055,12.7300254 L193.471637,12.7300254 L193.471637,50.6433471 L199.039174,50.6433471 C199.58913,50.6433471 200.000396,50.1666767 200.000396,49.6900062 L200.000396,48.5333493 C200.000396,48.5333493 202.131563,51.3240135 206.666473,51.3240135 C214.158515,51.3240135 220,45.6080478 220,37.848043 C220,30.0880382 214.158515,24.3679926 206.736505,24.3679926 L206.736505,24.3679926 Z M205.636592,45.1293374 C203.092786,45.1293374 201.100309,43.8373633 200.069055,42.3386732 L200.069055,33.2173357 C201.100309,31.8560029 203.299449,30.4266715 205.636592,30.4266715 C210.034871,30.4266715 213.402582,33.149337 213.402582,37.7780044 C213.402582,42.4066719 210.035557,45.1293374 205.636592,45.1293374 Z M190.035954,35.4646907 L190.035954,50.7113458 L183.437162,50.7113458 L183.437162,36.2126757 C183.437162,31.9933601 182.062614,30.2906742 178.353669,30.2906742 C176.361193,30.2906742 174.298684,31.3120138 172.990735,32.8100238 L172.990735,50.6440271 L166.39469,50.6440271 L166.39469,25.050019 L171.616187,25.050019 C172.166144,25.050019 172.578783,25.5266895 172.578783,26.0033599 L172.578783,27.0926981 C174.503287,25.1180176 177.04572,24.3686726 179.588154,24.3686726 C182.475253,24.3686726 184.881056,25.1866963 186.80556,26.8200236 C189.14133,28.7260255 190.035954,31.1760165 190.035954,35.4646907 L190.035954,35.4646907 Z M150.378667,24.3679926 C145.843757,24.3679926 143.71259,27.0920182 143.71259,27.0920182 L143.71259,12.7300254 L137.115172,12.7300254 L137.115172,50.6433471 L142.681336,50.6433471 C143.231292,50.6433471 143.643931,50.1666767 143.643931,49.6900062 L143.643931,48.5333493 C143.643931,48.5333493 145.775098,51.3240135 150.310008,51.3240135 C157.802049,51.3240135 163.643535,45.6080478 163.643535,37.848043 C163.712194,30.0873583 157.870708,24.3679926 150.378667,24.3679926 L150.378667,24.3679926 Z M149.278754,45.1293374 C146.736321,45.1293374 144.743844,43.8373633 143.71259,42.3386732 L143.71259,33.2173357 C144.743844,31.8560029 146.942983,30.4266715 149.278754,30.4266715 C153.678406,30.4266715 157.04543,33.149337 157.04543,37.7780044 C157.04543,42.4066719 153.678406,45.1293374 149.278754,45.1293374 Z M131.410317,24.3679926 C133.402794,24.3679926 134.434048,24.7093458 134.434048,24.7093458 L134.434048,30.7666647 C134.434048,30.7666647 128.935856,28.9286614 125.500173,32.8093438 L125.500173,50.7106658 L118.901382,50.7106658 L118.901382,25.049339 L124.468919,25.049339 C125.018875,25.049339 125.430141,25.5260095 125.430141,26.0026799 L125.430141,27.0920182 C126.668745,25.6620068 129.349182,24.3679926 131.410317,24.3679926 L131.410317,24.3679926 Z M62.8895834,48.3286734 C62.5462897,47.5120098 62.2023095,46.6273475 61.8590158,45.8780024 C61.3083727,44.6533469 60.7584162,43.4953301 60.2784916,42.4066719 L60.2098329,42.3386732 C55.4668873,32.1279974 50.3820212,21.7826843 45.0204603,11.5733685 L44.8144841,11.1640167 C44.2505697,10.1049175 43.7010215,9.03837627 43.1659878,7.96468071 C42.4780273,6.73866523 41.7914399,5.44669107 40.6915269,4.22067559 C38.4923875,1.49801004 35.3306527,0 31.9636282,0 C28.5265717,0 25.4341822,1.49801004 23.1670707,4.08399832 C22.1358164,5.30865383 21.3791971,6.60198796 20.6926098,7.82800344 C20.1562211,8.90102502 19.6066818,9.96754915 19.0441135,11.0273395 L18.8374507,11.4366913 C13.5452352,21.6460071 8.39102371,31.9920002 3.64876469,42.201996 L3.57941936,42.3373133 C3.0988082,43.4280114 2.54816512,44.5846683 1.99820863,45.8086438 C1.65491494,46.5579888 1.31162125,47.3746525 0.968327561,48.2593148 C0.074390795,50.7773045 -0.200930744,53.1599768 0.14373612,55.6113278 C0.899668824,60.7166657 4.33535206,65.0032999 9.07829767,66.9106618 C10.8654846,67.6600068 12.7213303,68 14.6451481,68 C15.1951046,68 15.881692,67.9320014 16.4323351,67.8633227 C18.7008198,67.5913282 21.0372766,66.8433431 23.3057613,65.550009 C26.1235159,63.9840003 28.803953,61.7386852 31.8276839,58.4713506 C34.8514147,61.7386852 37.6005105,63.9840003 40.3496064,65.550009 C42.6187777,66.8433431 44.9545479,67.5913282 47.2223461,67.8633227 C47.7723025,67.9326813 48.4602631,68 49.0102196,68 C50.934724,68 52.8585418,67.6600068 54.5763835,66.9106618 C59.3879878,65.0032999 62.7550123,60.648667 63.5116316,55.6113278 C64.0574686,53.2293354 63.7828336,50.848023 62.8895834,48.3286734 L62.8895834,48.3286734 Z M31.8942828,51.8680026 C28.1825915,47.2393352 25.7767893,42.8833423 24.9528844,39.2086958 C24.6095908,37.6426871 24.5402454,36.2813544 24.7469082,35.0560189 C24.8835391,33.9666807 25.2968647,33.0133397 25.8468212,32.1966761 C27.1527104,30.3600328 29.3518498,29.202016 31.8949694,29.202016 C34.4387757,29.202016 36.7065738,30.2913542 37.9438042,32.1966761 C38.4937607,33.0133397 38.9057131,33.9673607 39.0444038,35.0560189 C39.2496934,36.2820344 39.1810347,37.7106858 38.837741,39.2086958 C38.0104032,42.8153437 35.604601,47.1720166 31.8942828,51.8680026 Z M59.3152095,55.0673387 C58.8345984,58.6066679 56.4287962,61.6706866 53.0617717,63.0320194 C51.4125888,63.7120058 49.6247153,63.9166817 47.8389015,63.7120058 C46.1210599,63.5073299 44.4018451,62.9626607 42.6160313,61.9426811 C40.1415704,60.5799884 37.6677961,58.4713506 34.7806962,55.3393332 C39.3162924,49.8266835 42.0653883,44.7886642 43.0966425,40.2973541 C43.5779402,38.1866763 43.6472856,36.2813544 43.4399362,34.5106698 C43.1659878,32.8093438 42.546686,31.2433351 41.5847771,29.8820024 C39.4529233,26.8179836 35.8785494,25.049339 31.8935962,25.049339 C27.9086431,25.049339 24.3342692,26.8873423 22.2037886,29.8820024 C21.2418797,31.2433351 20.6225778,32.8093438 20.3479429,34.5106698 C20.0733079,36.2813544 20.1412801,38.2546749 20.6912366,40.2973541 C21.7218042,44.7886642 24.5395588,49.8940021 29.0064963,55.4073319 C26.1887417,58.5386692 23.6456221,60.649347 21.1711612,62.0106798 C19.3839742,63.0320194 17.6668192,63.5766885 15.9489776,63.7800044 C14.0938185,63.9846803 12.3059449,63.7120058 10.7254208,63.100018 C7.35839629,61.7386852 4.95259412,58.6746665 4.47198295,55.1353373 C4.26600674,53.4340113 4.40263763,51.7326853 5.09059818,49.8266835 C5.29588781,49.1453371 5.64055467,48.4653507 5.98384836,47.648687 C6.46514611,46.5593488 7.01372943,45.401332 7.5643725,44.2446751 L7.63371783,44.1093578 C12.3752903,33.9666807 17.460843,23.6206876 22.7530585,13.5473691 L22.9590347,13.1380172 C23.5096778,12.1180376 24.0596343,11.0286994 24.6089042,10.0073599 C25.1588607,8.91802164 25.7767893,7.89668207 26.5334086,7.01133977 C27.9766153,5.37937241 29.9004331,4.49335013 32.0316003,4.49335013 C34.1627675,4.49335013 36.0865854,5.37937241 37.529792,7.01133977 C38.2864113,7.89872203 38.90434,8.9200616 39.4542965,10.0073599 C40.0049395,11.0286994 40.554896,12.1180376 41.1034793,13.1380172 L41.3101421,13.5473691 C46.5216576,23.6625418 51.5396765,33.8743612 56.3615106,44.1773565 L56.3615106,44.2453551 C56.9121537,45.3360533 57.3927649,46.5600288 57.9427214,47.650727 C58.2860151,48.4660307 58.6299953,49.1460171 58.8359716,49.8273635 C59.3845549,51.5953281 59.5905311,53.298014 59.3152095,55.0673387 L59.3152095,55.0673387 Z" id="Shape"></path>
                </g>
            </g>
        </g>
    </g>
</svg>