<svg id="Layer_1" data-name="Layer 1" xmlns="http://www.w3.org/2000/svg" viewBox="0 0 280 66.18"><defs><style>.cls-1{fill:#fff;}</style></defs><title>Logo+TextOverDark</title><g id="Layer_2" data-name="Layer 2"><g id="Layer_1-2" data-name="Layer 1-2"><path class="cls-1" d="M60.33,36.44C60.3,52,48.61,64.74,33.76,66c0,0-19.07.49-25.39-.07a6.59,6.59,0,0,1-5.28-4,8.07,8.07,0,0,0,2.8.78c2.07.18,5.6.27,10.52.27,7.23,0,15.07-.2,15.15-.2h.14a31,31,0,0,0,20.44-10.2,32.46,32.46,0,0,0,8.15-17.93C60.32,35.22,60.33,35.83,60.33,36.44Z"/><path class="cls-1" d="M58,30c0,15.56-11.72,28.29-26.57,29.53,0,0-19.07.5-25.39-.06-3.39-.3-5.93-3.55-6-7.14l.06-45C.2,3.74,2.75.5,6.15.22c6.33-.53,25.39.06,25.39.06C46.38,1.6,58,14.39,58,30Z"/><path class="cls-1" d="M77.16,18.41a.83.83,0,0,1,.82-.82h13.3a11.26,11.26,0,0,1,1.64.08s6.07.62,8.9,2a15.74,15.74,0,0,1,6.59,6,17,17,0,0,1,2.34,9,17,17,0,0,1-2.34,9,15.74,15.74,0,0,1-6.59,6c-2.83,1.42-8.9,2-8.9,2-.45,0-1.19.08-1.64.08H78a.83.83,0,0,1-.82-.82ZM91,46.4a11.26,11.26,0,0,0,1.64-.08A22,22,0,0,0,98.43,45a10.29,10.29,0,0,0,4.4-4.1,12.13,12.13,0,0,0,1.54-6.18,12.13,12.13,0,0,0-1.54-6.18,10.3,10.3,0,0,0-4.4-4.1A22.12,22.12,0,0,0,92.63,23h-8.3a.83.83,0,0,0-.82.82v21.8a.83.83,0,0,0,.82.82Z"/><path class="cls-1" d="M141.39,39.86a.9.9,0,0,1-.88.82H121.7a.53.53,0,0,0-.53.77,10,10,0,0,0,2.52,3.79,9.21,9.21,0,0,0,5.64,1.69c2.87,0,6.4-2.37,6.4-2.37a1,1,0,0,1,1.22.16l2.19,2.52a.86.86,0,0,1-.06,1.18A15.75,15.75,0,0,1,135.23,51a17.61,17.61,0,0,1-13.63-.64,12.3,12.3,0,0,1-5.05-4.76,13.45,13.45,0,0,1-1.78-6.91,13.64,13.64,0,0,1,1.73-6.86,12.32,12.32,0,0,1,4.81-4.76,14.05,14.05,0,0,1,6.94-1.71A13.68,13.68,0,0,1,135.06,27a11.93,11.93,0,0,1,4.69,4.74,14.37,14.37,0,0,1,1.68,7.06C141.43,39.3,141.39,39.86,141.39,39.86ZM123.29,32a10.28,10.28,0,0,0-2.21,3.83.57.57,0,0,0,.57.78H134.8a.57.57,0,0,0,.58-.79,10.11,10.11,0,0,0-2.15-3.8,7.27,7.27,0,0,0-5-1.76A7.36,7.36,0,0,0,123.29,32Z"/><path class="cls-1" d="M170.4,25.69a.5.5,0,0,1,.5.76L160.37,51a1.36,1.36,0,0,1-1.15.76h-4.65a1.36,1.36,0,0,1-1.15-.76L142.88,26.45a.5.5,0,0,1,.5-.76h4.7a1.34,1.34,0,0,1,1.14.76l7.47,17.82c.18.42.47.42.65,0L165,26.45a1.36,1.36,0,0,1,1.15-.76Z"/><path class="cls-1" d="M184,23.53a6.46,6.46,0,0,0-.24,1.57.81.81,0,0,0,.82.78h5.53a.83.83,0,0,1,.82.82v3.24a.83.83,0,0,1-.82.82h-5.34a.83.83,0,0,0-.82.82V51a.83.83,0,0,1-.82.82h-4.46a.83.83,0,0,1-.82-.82V31.59a.83.83,0,0,0-.82-.82h-2.65a.83.83,0,0,1-.82-.82V26.71a.83.83,0,0,1,.82-.82H177a.83.83,0,0,0,.82-.82h0a12.33,12.33,0,0,1,.13-1.64s.68-4.19,2.31-5.8a9.37,9.37,0,0,1,6.89-2.42,13.61,13.61,0,0,1,4.77,1.08.89.89,0,0,1,.47,1.11l-1.13,3a.73.73,0,0,1-.94.44l-.06,0a7.17,7.17,0,0,0-2.63-.71C185,20.12,184,23.53,184,23.53Z"/><path class="cls-1" d="M199.22,50.4a12.45,12.45,0,0,1-5-4.76,13.45,13.45,0,0,1-1.78-6.91,13.31,13.31,0,0,1,1.78-6.89,12.51,12.51,0,0,1,5-4.74,15.82,15.82,0,0,1,14.31,0,12.53,12.53,0,0,1,5,4.74,13.31,13.31,0,0,1,1.78,6.89,13.45,13.45,0,0,1-1.78,6.91,12.47,12.47,0,0,1-5,4.76A15.82,15.82,0,0,1,199.22,50.4Zm12.7-5.76a8.08,8.08,0,0,0,2.2-5.91,8.09,8.09,0,0,0-2.2-5.91,7.46,7.46,0,0,0-5.57-2.25,7.38,7.38,0,0,0-5.54,2.25,8.14,8.14,0,0,0-2.17,5.91,8.13,8.13,0,0,0,2.17,5.91,7.37,7.37,0,0,0,5.54,2.25,7.46,7.46,0,0,0,5.56-2.25Z"/><path class="cls-1" d="M240.54,20.34a3.6,3.6,0,0,1-.14-5.09l.14-.14a3.92,3.92,0,0,1,2.78-1,4,4,0,0,1,2.79,1,3.23,3.23,0,0,1,1.12,2.52,3.68,3.68,0,0,1-1.1,2.71,3.8,3.8,0,0,1-2.81,1.1A3.92,3.92,0,0,1,240.54,20.34Zm-.29,6.17a.83.83,0,0,1,.82-.82h4.46a.83.83,0,0,1,.82.82V51a.83.83,0,0,1-.82.82h-4.46a.83.83,0,0,1-.82-.82Z"/><path class="cls-1" d="M259,50.4a12.45,12.45,0,0,1-5-4.76,13.45,13.45,0,0,1-1.78-6.91A13.31,13.31,0,0,1,254,31.84a12.51,12.51,0,0,1,5-4.74,15.82,15.82,0,0,1,14.31,0,12.53,12.53,0,0,1,5,4.74A13.31,13.31,0,0,1,280,38.73a13.45,13.45,0,0,1-1.78,6.91,12.47,12.47,0,0,1-5,4.76,15.82,15.82,0,0,1-14.31,0Zm12.7-5.76a8.08,8.08,0,0,0,2.2-5.91,8.09,8.09,0,0,0-2.2-5.91,7.46,7.46,0,0,0-5.57-2.25,7.38,7.38,0,0,0-5.54,2.25,8.14,8.14,0,0,0-2.17,5.91,8.13,8.13,0,0,0,2.17,5.91,7.37,7.37,0,0,0,5.54,2.25,7.46,7.46,0,0,0,5.57-2.25Z"/><path class="cls-1" d="M226.13,16.35a.83.83,0,0,1,.82-.82h4.46a.83.83,0,0,1,.82.82V51a.83.83,0,0,1-.82.82H227a.83.83,0,0,1-.82-.82Z"/></g></g></svg>